Coordinates
version=1
nRows=8
nColumns=63
inDegrees=yes

Units are S.I. units (second, meters, Newtons, ...)
If the header above contains a line with 'inDegrees', this indicates whether rotational values are in degrees (yes) or radians (no).

endheader
time	pelvis_tilt	pelvis_list	pelvis_rotation	pelvis_tx	pelvis_ty	pelvis_tz	hip_flexion_r	hip_adduction_r	hip_rotation_r	knee_angle_r	knee_angle_r_beta	ankle_angle_r	subtalar_angle_r	mtp_angle_r	hip_flexion_l	hip_adduction_l	hip_rotation_l	knee_angle_l	knee_angle_l_beta	ankle_angle_l	subtalar_angle_l	mtp_angle_l	L5_S1_Flex_Ext	L5_S1_Lat_Bending	L5_S1_axial_rotation	L4_L5_Flex_Ext	L4_L5_Lat_Bending	L4_L5_axial_rotation	L3_L4_Flex_Ext	L3_L4_Lat_Bending	L3_L4_axial_rotation	L2_L3_Flex_Ext	L2_L3_Lat_Bending	L2_L3_axial_rotation	L1_L2_Flex_Ext	L1_L2_Lat_Bending	L1_L2_axial_rotation	L1_T12_Flex_Ext	L1_T12_Lat_Bending	L1_T12_axial_rotation	Abs_r3	Abs_r2	Abs_r1	Abs_t1	Abs_t2	neck_flexion	neck_bending	neck_rotation	arm_flex_r	arm_add_r	arm_rot_r	elbow_flex_r	pro_sup_r	wrist_flex_r	wrist_dev_r	arm_flex_l	arm_add_l	arm_rot_l	elbow_flex_l	pro_sup_l	wrist_flex_l	wrist_dev_l
1.966667	9.853544	-30.678664	99.929457	0.244632	0.651429	0.772844	42.936423	3.426790	12.683795	2.730592	0.047658	8.935667	-14.779543	0.000000	53.445301	-7.246626	-13.455512	25.908469	0.452188	18.231125	17.327351	0.000000	0.073422	-0.130336	1.167853	0.136353	-0.173348	1.240844	0.120626	-0.316900	1.240844	0.083914	-0.316900	1.021872	0.068180	-0.265782	0.948881	0.041954	-0.201891	0.875890	0.524449	-1.474392	6.495249	0.000000	0.000000	17.344444	9.851044	-6.586771	22.280651	-34.007877	-3.259437	82.528889	83.860196	-2.034171	32.498858	12.736618	-25.900012	40.679154	64.567493	88.253462	-1.239505	11.036002
1.983333	9.575428	-30.777755	99.714750	0.245357	0.651273	0.773292	43.182814	3.314309	12.454309	3.228794	0.056353	8.664506	-14.661117	0.000000	53.697486	-7.190995	-13.492758	26.014620	0.454041	16.830798	17.040597	0.000000	0.059214	-0.182240	1.203485	0.109967	-0.242379	1.278703	0.097283	-0.443099	1.278703	0.067676	-0.443099	1.053050	0.054987	-0.371624	0.977832	0.033835	-0.282290	0.902614	0.422963	-2.061538	6.693425	0.000000	0.000000	16.572817	10.166489	-6.874269	21.880998	-33.739199	-3.881602	82.885100	83.754685	-2.277525	32.530165	12.461747	-26.548263	40.956193	64.269473	88.403873	-3.486043	9.778103
2.000000	9.214968	-30.861441	99.402932	0.246039	0.651011	0.773589	43.431841	3.195393	12.428610	3.760545	0.065634	8.525407	-14.681675	0.000000	53.694950	-7.059162	-13.624412	25.740267	0.449252	15.700114	16.977035	0.000000	0.044603	-0.243929	1.254788	0.082833	-0.324425	1.333213	0.073279	-0.593088	1.333213	0.050977	-0.593088	1.097940	0.041419	-0.497419	1.019516	0.025486	-0.377846	0.941091	0.318597	-2.759371	6.978757	0.000000	0.000000	15.918492	10.498065	-7.215077	21.421912	-33.454939	-4.589374	83.307666	83.722680	-2.498794	32.572793	11.961633	-27.344296	41.007984	64.154977	88.579187	-5.631240	8.493023
2.016667	8.745287	-30.929483	98.950709	0.246650	0.650665	0.773762	43.720953	3.057176	12.454064	4.371954	0.076305	8.680260	-14.493489	0.000000	53.420137	-6.818990	-13.590696	25.066228	0.437488	14.835981	16.693084	0.000000	0.030115	-0.315987	1.325105	0.055927	-0.420263	1.407924	0.049477	-0.768291	1.407924	0.034419	-0.768291	1.159467	0.027965	-0.644361	1.076648	0.017208	-0.489464	0.993829	0.215112	-3.574510	7.369838	0.000000	0.000000	15.358757	10.865871	-7.566427	20.929099	-33.187406	-5.292113	83.764320	83.798209	-2.761540	32.617924	11.215825	-28.297314	40.855230	64.147389	88.764865	-7.583737	7.297996
2.033333	8.287879	-30.978857	98.461232	0.247042	0.650203	0.773835	44.009110	2.943114	12.483322	4.946235	0.086328	9.064212	-14.162826	0.000000	52.964050	-6.546299	-13.404687	24.122826	0.421023	14.389005	16.395276	0.000000	0.018944	-0.383412	1.407789	0.035181	-0.509938	1.495775	0.031123	-0.932228	1.495775	0.021651	-0.932228	1.231815	0.017592	-0.781854	1.143828	0.010825	-0.593905	1.055841	0.135317	-4.337233	7.829697	0.000000	0.000000	14.900035	11.172619	-7.958137	20.393812	-32.997875	-6.008032	84.244913	84.054702	-2.891733	32.663285	10.269618	-29.373284	40.665356	64.152656	88.950197	-9.297941	6.334900
2.050000	7.853421	-31.000031	97.947141	0.247154	0.649666	0.773833	44.297173	2.849034	12.489204	5.493688	0.095883	9.724699	-13.613337	0.000000	52.350130	-6.245469	-13.053881	22.968012	0.400867	14.368802	16.040002	0.000000	0.009715	-0.442259	1.498998	0.018042	-0.588204	1.592686	0.015961	-1.075308	1.592686	0.011103	-1.075308	1.311624	0.009021	-0.901854	1.217936	0.005551	-0.685059	1.124249	0.069393	-5.002919	8.336980	0.000000	0.000000	14.536673	11.415553	-8.318356	19.858147	-32.918934	-6.675844	84.709049	84.455644	-2.846456	32.708870	9.198958	-30.566057	40.666000	64.052465	89.117672	-10.763023	5.590628
2.066667	7.463929	-30.995719	97.429845	0.246961	0.649067	0.773754	44.589039	2.790122	12.531890	6.024276	0.105143	10.614148	-12.967286	0.000000	51.627126	-5.940663	-12.579379	21.682486	0.378431	14.779485	15.674003	0.000000	0.002941	-0.488908	1.599512	0.005461	-0.650248	1.699482	0.004831	-1.188731	1.699482	0.003361	-1.188731	1.399573	0.002731	-0.996982	1.299604	0.001680	-0.757319	1.199634	0.021004	-5.530627	8.896007	0.000000	0.000000	14.269263	11.565658	-8.661185	19.299220	-32.979530	-7.300526	85.161456	84.956019	-2.624614	32.751102	8.123018	-31.883583	41.162173	63.798770	89.260662	-12.094025	5.068581
2.083333	7.160531	-30.970675	96.961468	0.246386	0.648433	0.773576	44.875602	2.767929	12.547316	6.527756	0.113931	11.703390	-12.193304	0.000000	50.854097	-5.644144	-11.961841	20.346647	0.355116	15.584837	15.316058	0.000000	0.000523	-0.517559	1.702352	0.000972	-0.688353	1.808749	0.000860	-1.258393	1.808749	0.000598	-1.258393	1.489558	0.000486	-1.055406	1.383161	0.000299	-0.801699	1.276764	0.003737	-5.854729	9.467971	0.000000	0.000000	14.089081	11.585283	-8.952553	18.721561	-33.188894	-7.884418	85.588916	85.534102	-2.174598	32.792112	7.036595	-33.303214	42.112291	63.405521	89.402089	-12.975971	4.830427
